<svg xmlns="http://www.w3.org/2000/svg" width="35" height="34" viewBox="0 0 35 34"><g><g><path fill="#fff" d="M26.514 5.092L13.438 17.688v3.495h3.498L29.544 8.119zm.027-5.089c.542 0 1.083.207 1.496.62l5.98 5.975a2.112 2.112 0 0 1 0 2.988l-15.28 15.832H9.2v-9.53L25.046.62A2.111 2.111 0 0 1 26.54.003zM30.397 23.3a2.12 2.12 0 0 1 4.24 0v8.472a2.12 2.12 0 0 1-2.12 2.119H2.84a2.12 2.12 0 0 1-2.12-2.119V2.122c0-1.17.95-2.119 2.12-2.119h8.48a2.119 2.119 0 1 1 0 4.236h-5.3a1.06 1.06 0 0 0-1.06 1.059v23.298c0 .585.474 1.059 1.06 1.059h23.318a1.06 1.06 0 0 0 1.06-1.06z"/></g></g></svg>